<?xml version="1.0" encoding="UTF-8"?>
<svg width="372px" height="30px" viewBox="0 0 372 30" version="1.1" xmlns="http://www.w3.org/2000/svg" xmlns:xlink="http://www.w3.org/1999/xlink">
    <!-- Generator: Sketch 52.2 (67145) - http://www.bohemiancoding.com/sketch -->
    <title>logo lockup</title>
    <desc>Created with Sketch.</desc>
    <defs>
        <polygon id="path-1" points="0 0.213095238 13.4048986 0.213095238 13.4048986 19.0080779 0 19.0080779"></polygon>
        <polygon id="path-3" points="1.06607139 0.213095238 53.8857143 0.213095238 53.8857143 19.6012612 1.06607139 19.6012612"></polygon>
    </defs>
    <g id="logo-lockup" stroke="none" stroke-width="1" fill="none" fill-rule="evenodd">
        <path d="M184.5,0.442382812 L184.5,29.5" id="Line-2" stroke="#979797" stroke-linecap="square"></path>
        <g id="thenewyorktimes" transform="translate(195.500000, 5.000000)">
            <g id="Group-3">
                <mask id="mask-2" fill="white">
                    <use xlink:href="#path-1"></use>
                </mask>
                <g id="Clip-2"></g>
                <path d="M10.9107143,0.23452381 C11.4059524,0.276190476 12.1797619,0.520238095 12.7642857,1.03214286 C13.3857143,1.63452381 13.5261905,2.55119048 13.3095238,3.37857143 C13.1154762,4.12261905 12.8988095,4.50357143 12.1428571,5.01785714 C11.3797619,5.53333333 10.4571429,5.49166667 10.4571429,5.49166667 L10.4571429,8.69880952 L12.0166667,9.96071429 L10.4571429,11.2214286 L10.4571429,15.5904762 C10.4571429,15.5904762 12.0202381,14.6952381 12.9892857,12.6857143 C12.9892857,12.6857143 13.0309524,12.5785714 13.1202381,12.372619 C13.2071429,12.9095238 13.1571429,13.9952381 12.55,15.3928571 C12.0916667,16.4452381 11.2595238,17.4595238 10.2119048,18.0357143 C8.35833333,19.0642857 6.96904762,19.1619048 5.47857143,18.8547619 C3.73571429,18.4940476 2.15119048,17.5154762 1.07142857,15.8035714 C0.310714286,14.6047619 -0.0285714286,13.202381 0.00119047619,11.6952381 C0.0619047619,8.73809524 2.26309524,6.18690476 4.80357143,5.23571429 C5.11190476,5.11785714 5.23452381,5.0452381 5.67380952,5.00357143 C5.47261905,5.14047619 5.23928571,5.3202381 4.95238095,5.50833333 C4.13333333,6.04285714 3.43214286,7.11547619 3.13333333,7.94047619 L8.06428571,5.73809524 L8.06428571,12.6321429 L4.08690476,14.627381 C4.54166667,15.252381 5.91785714,16.2059524 7.09404762,16.3369048 C9.09880952,16.5595238 10.272619,15.6857143 10.272619,15.6857143 L10.272619,11.2214286 L8.72142857,9.96071429 L10.275,8.70357143 L10.275,5.49166667 C9.42738095,5.38928571 8.39880952,5.11309524 7.79642857,4.96190476 C6.91309524,4.7452381 3.96547619,3.91547619 3.50119048,3.84761905 C3.03809524,3.77857143 2.46666667,3.79880952 2.12142857,4.10833333 C1.77619048,4.42261905 1.56190476,4.97142857 1.70952381,5.46428571 C1.79166667,5.74285714 1.98452381,5.90595238 2.13095238,6.06666667 C2.13095238,6.06666667 1.95833333,6.05238095 1.65,5.86666667 C1.09285714,5.53333333 0.670238095,4.88095238 0.619047619,4.07619048 C0.553571429,3.01785714 0.99047619,2.06904762 1.86071429,1.42738095 C2.61666667,0.939285714 3.47261905,0.629761905 4.46904762,0.771428571 C5.9202381,0.976190476 7.87380952,1.79761905 9.61190476,2.21547619 C10.2845238,2.37857143 10.8071429,2.43214286 11.2809524,2.15714286 C11.5011905,2 11.8904762,1.58809524 11.5714286,1.04404762 C11.202381,0.402380952 10.4928571,0.421428571 9.89047619,0.307142857 C10.4095238,0.197619048 10.5214286,0.197619048 10.9107143,0.23452381 Z M5.04880952,13.9416667 L5.04880952,7.28214286 L3.04642857,8.17738095 C3.04642857,8.17738095 2.53452381,9.31904762 2.625,10.977381 C2.6952381,12.272619 3.42142857,13.825 3.97738095,14.4714286 L5.04880952,13.9416667 Z" id="Fill-1" fill="#1A1919" mask="url(#mask-2)"></path>
            </g>
            <path d="M30.0345238,6.95714286 C30.0345238,6.95714286 28.522619,7.87261905 27.5083333,8.4797619 C26.4916667,9.08214286 25.1297619,9.74642857 25.1297619,9.74642857 L25.1297619,16.0988095 L24.2202381,16.8297619 L24.3404762,16.9690476 L25.2261905,16.2571429 L28.0059524,18.7666667 L32.8357143,14.9416667 L32.7190476,14.802381 L30.052381,16.8964286 L27.8583333,14.8440476 L27.8583333,14.0761905 L32.2642857,10.8369048 L30.0345238,6.95714286 Z M30.0988095,12.2047619 L27.8583333,13.8464286 L27.8583333,8.38690476 L30.0988095,12.2047619 Z" id="Fill-4" fill="#1A1919"></path>
            <path d="M17.377381,21.1535714 C18.0095238,21.3119048 19.1297619,21.3988095 20.4785714,20.7214286 C21.9714286,19.975 22.7214286,18.3892857 22.7119048,16.7619048 L22.775,14.4607143 L22.775,9.42380952 L23.7297619,8.69404762 L23.6178571,8.5547619 L22.6797619,9.26071429 L20.5107143,6.85 L17.7297619,9.24047619 L17.7297619,1.125 L14.2547619,3.80833333 C14.4095238,3.90833333 14.9011905,3.99880952 14.9166667,4.68928571 L14.9166667,16.0595238 L13.4440476,17.152381 L13.5440476,17.3035714 L14.2559524,16.7738095 L16.2357143,18.6154762 L19.3488095,16.1345238 L19.2369048,15.9940476 L18.5047619,16.5738095 L17.7297619,15.8035714 L17.7380952,9.4702381 L18.6452381,8.69880952 L19.997619,10.3797619 C19.997619,10.3797619 19.9964286,14.4785714 20,15.8416667 C19.9892857,17.2916667 19.9857143,19.1035714 19.2214286,19.975 C18.4583333,20.8559524 18.1535714,20.9238095 17.377381,21.1535714" id="Fill-5" fill="#1A1919"></path>
            <path d="M38.9964286,20.5821429 C37.7511905,20.4380952 37.2297619,19.6845238 37.2440476,19.0892857 C37.252381,18.7107143 37.6,17.9619048 38.3547619,17.8595238 C39.1119048,17.752381 39.8857143,18.1083333 40.5369048,18.877381 L43.4119048,15.7011905 L43.275,15.5761905 L42.502381,16.4404762 C41.7178571,15.547619 40.6035714,14.9857143 39.4964286,14.822619 L39.4964286,5.14285714 L46.9630952,18.7452381 C46.9630952,18.7452381 47.0345238,18.9011905 47.3416667,18.9011905 C47.6047619,18.9011905 47.5404762,18.6869048 47.5404762,18.6869048 L47.5392857,5.00119048 C48.1488095,4.97380952 49.072619,4.64047619 49.5238095,4.17857143 C50.9619048,2.70238095 50.3738095,1.08809524 50.2142857,0.93452381 C50.1285714,1.63928571 49.5857143,2.34642857 48.6821429,2.35357143 C47.4964286,2.35357143 46.775,1.47857143 46.775,1.47857143 L43.9,4.75238095 L44.0380952,4.87857143 L44.8619048,3.93690476 C45.8666667,4.85952381 46.6,4.95 47.3595238,5.00119048 L47.3583333,12.9392857 L41.8190476,2.88095238 C41.3190476,2.04880952 40.5571429,1.31785714 39.3583333,1.30952381 C37.9833333,1.3 36.9988095,2.51309524 36.8797619,3.55714286 C36.7488095,4.73809524 36.8952381,5.00833333 36.8952381,5.00833333 C36.8952381,5.00833333 37.097619,3.69642857 37.9095238,3.70595238 C38.6404762,3.71785714 39.0214286,4.38928571 39.3119048,4.89404762 L39.3119048,7.81071429 C38.5607143,7.85952381 36.6,7.94761905 36.4797619,9.98690476 C36.4702381,10.7440476 36.9428571,11.5392857 37.3535714,11.8071429 C37.8845238,12.1559524 38.3,12.1511905 38.3,12.1511905 C38.3,12.1511905 37.6630952,11.8142857 37.8535714,11.1416667 C38.0238095,10.5440476 39.2702381,10.4464286 39.3142857,10.697619 L39.3142857,14.8107143 C38.7154762,14.802381 36.7964286,14.8666667 35.9309524,16.5107143 C35.4107143,17.5083333 35.4404762,18.6202381 35.997619,19.4011905 C36.452381,20.0404762 37.3880952,20.8559524 38.9964286,20.5821429" id="Fill-6" fill="#1A1919"></path>
            <path d="M54.7654762,6.95714286 C54.7654762,6.95714286 53.2559524,7.87261905 52.2392857,8.4797619 C51.225,9.08214286 49.8607143,9.74642857 49.8607143,9.74642857 L49.8607143,16.0988095 L48.9535714,16.8297619 L49.072619,16.9690476 L49.9595238,16.2571429 L52.7380952,18.7666667 L57.5666667,14.9416667 L57.452381,14.802381 L54.7833333,16.8964286 L52.5904762,14.8440476 L52.5904762,14.0761905 L56.9964286,10.8369048 L54.7654762,6.95714286 Z M54.8309524,12.2047619 L52.5904762,13.8464286 L52.5904762,8.38690476 L54.8309524,12.2047619 Z" id="Fill-7" fill="#1A1919"></path>
            <path d="M61.5154762,18.8154762 L59.147619,16.847619 L58.1083333,17.6035714 L58.0035714,17.452381 L59.0619048,16.6833333 L59.0619048,11.1821429 C59.1130952,8.91666667 56.9869048,9.47738095 57.102381,7.075 C57.1511905,6.0202381 58.175,5.2202381 58.6904762,4.9547619 C59.2428571,4.67619048 59.8404762,4.67619048 59.8404762,4.67619048 C59.8404762,4.67619048 58.8714286,5.28214286 59.1071429,6.1547619 C59.4702381,7.49642857 61.7654762,7.61904762 61.8095238,9.4047619 L61.8095238,15.6464286 L63.5035714,17.0035714 L63.9488095,16.6547619 L63.9488095,9.89761905 L63.0369048,8.99404762 L65.3904762,6.91071429 L67.5404762,8.81428571 L66.7190476,9.70238095 L66.7190476,15.6880952 L68.7333333,17.35 L69.0928571,17.1202381 L69.0928571,9.91666667 L68.175,9.06071429 L70.5345238,6.90357143 L72.7392857,8.72619048 L73.6202381,7.94761905 L73.7380952,8.08452381 L71.7571429,9.82619048 L71.7571429,15.7011905 L66.6845238,18.8261905 L64.0892857,16.7738095 L61.5154762,18.8154762" id="Fill-8" fill="#1A1919"></path>
            <path d="M165.275,6.95714286 C165.275,6.95714286 163.763095,7.87261905 162.74881,8.4797619 C161.730952,9.08214286 160.367857,9.74642857 160.367857,9.74642857 L160.367857,16.0988095 L159.461905,16.8297619 L159.582143,16.9690476 L160.466667,16.2571429 L163.246429,18.7666667 L168.07381,14.9416667 L167.959524,14.802381 L165.292857,16.8964286 L163.097619,14.8440476 L163.097619,14.0761905 L167.502381,10.8369048 L165.275,6.95714286 Z M165.339286,12.2047619 L163.097619,13.8464286 L163.097619,8.38690476 L165.339286,12.2047619 Z" id="Fill-9" fill="#1A1919"></path>
            <polyline id="Fill-10" fill="#1A1919" points="142.604762 9.61666667 142.722619 9.75357143 143.632143 8.9702381 144.980952 10.5 144.980952 15.7464286 144.325 16.3464286 146.428571 18.722619 148.589286 16.5964286 147.70119 15.6785714 147.70119 9.32857143 148.238095 8.90119048 149.728571 10.6440476 149.728571 15.8761905 149.170238 16.4345238 151.15119 18.6666667 153.267857 16.5428571 152.490476 15.727381 152.467857 9.35357143 153.041667 8.88928571 154.597619 10.602381 154.597619 15.8107143 154.085714 16.3178571 156.27381 18.7035714 159.210714 15.9940476 159.084524 15.8571429 158.37381 16.5202381 157.278571 15.302381 157.278571 9.36071429 158.333333 8.55833333 158.225 8.41428571 157.169048 9.21666667 155.169048 6.97738095 152.314286 9.23571429 150.309524 7.05714286 147.552381 9.21666667 145.534524 7.06785714 142.604762 9.61666667"></polyline>
            <polyline id="Fill-11" fill="#1A1919" points="136.62619 9.45357143 136.745238 9.59166667 137.511905 8.92380952 138.716667 10.3488095 138.716667 16.347619 137.865476 17.0892857 137.986905 17.227381 138.875 16.4690476 140.814286 18.7035714 143.613095 16.2059524 143.497619 16.0690476 142.67381 16.7928571 141.511905 15.4571429 141.511905 9.59166667 142.488095 8.7452381 142.371429 8.60952381 141.444048 9.4047619 139.404762 7.03095238 136.62619 9.45357143"></polyline>
            <g id="Group-16" transform="translate(122.619048, 0.000000)">
                <mask id="mask-4" fill="white">
                    <use xlink:href="#path-3"></use>
                </mask>
                <g id="Clip-13"></g>
                <polyline id="Fill-12" fill="#1A1919" mask="url(#mask-4)" points="14.8142857 4.48571429 16.922619 2.55357143 18.6369048 4.4547619 16.5202381 6.3797619 14.8142857 4.48571429"></polyline>
                <path d="M11.977381,0.23452381 C12.472619,0.276190476 13.2464286,0.520238095 13.8333333,1.03214286 C14.4511905,1.63452381 14.5928571,2.55119048 14.377381,3.37857143 C14.1845238,4.12261905 13.9678571,4.50357143 13.2095238,5.01785714 C12.447619,5.53333333 11.5238095,5.49166667 11.5238095,5.49166667 L11.5238095,8.69880952 L13.0845238,9.96071429 L11.5238095,11.2214286 L11.5238095,15.5904762 C11.5238095,15.5904762 13.0892857,14.6952381 14.0559524,12.6857143 C14.0559524,12.6857143 14.097619,12.5785714 14.1880952,12.372619 C14.275,12.9095238 14.2261905,13.9952381 13.6190476,15.3928571 C13.1583333,16.4452381 12.3261905,17.4595238 11.2797619,18.0357143 C9.42619048,19.0666667 8.03809524,19.1619048 6.54761905,18.8547619 C4.80238095,18.4940476 3.22142857,17.5154762 2.13690476,15.8035714 C1.3797619,14.6047619 1.03809524,13.202381 1.06785714,11.6952381 C1.12857143,8.73809524 3.3297619,6.18690476 5.87142857,5.23571429 C6.18095238,5.11785714 6.30357143,5.0452381 6.74166667,5.00357143 C6.53928571,5.14047619 6.30595238,5.3202381 6.0202381,5.50833333 C5.20238095,6.04285714 4.5,7.11547619 4.20238095,7.94047619 L9.13095238,5.73809524 L9.13095238,12.6321429 L5.15595238,14.627381 C5.61071429,15.252381 6.98571429,16.2059524 8.16428571,16.3369048 C10.1666667,16.5595238 11.3404762,15.6857143 11.3404762,15.6857143 L11.3404762,11.2214286 L9.78690476,9.96071429 L11.3404762,8.70357143 L11.3404762,5.49166667 C10.4940476,5.38928571 9.46666667,5.11309524 8.86666667,4.96190476 C7.98333333,4.7452381 5.0297619,3.91547619 4.56904762,3.84761905 C4.10714286,3.77857143 3.53452381,3.79880952 3.18809524,4.10833333 C2.84404762,4.42261905 2.6297619,4.97142857 2.775,5.46428571 C2.86071429,5.74285714 3.05119048,5.90595238 3.19761905,6.06666667 C3.19761905,6.06666667 3.02619048,6.05238095 2.71904762,5.86666667 C2.16071429,5.53333333 1.73690476,4.88095238 1.68690476,4.07619048 C1.62142857,3.01785714 2.05833333,2.06904762 2.92738095,1.42738095 C3.68571429,0.939285714 4.54166667,0.629761905 5.53690476,0.771428571 C6.98809524,0.978571429 8.94047619,1.79761905 10.6797619,2.21547619 C11.3547619,2.37857143 11.875,2.43214286 12.35,2.15714286 C12.5678571,2 12.9583333,1.58809524 12.6380952,1.04404762 C12.2702381,0.402380952 11.5583333,0.421428571 10.9595238,0.307142857 C11.475,0.197619048 11.5892857,0.197619048 11.977381,0.23452381 Z M6.11785714,13.9416667 L6.11785714,7.28214286 L4.11428571,8.17738095 C4.11428571,8.17738095 3.60238095,9.31666667 3.69047619,10.977381 C3.76547619,12.272619 4.48809524,13.825 5.04404762,14.4714286 L6.11785714,13.9416667 Z" id="Fill-14" fill="#1A1919" mask="url(#mask-4)"></path>
                <path d="M48.0285714,19.5869048 C47.7059524,19.6797619 46.3178571,19.3452381 45.9845238,17.9035714 C45.6595238,16.4988095 46.6333333,15.547619 48.1059524,14.0511905 L46.3690476,12.4630952 L46.3690476,9.42857143 C46.3690476,9.42857143 47.6452381,8.78690476 48.647619,8.16309524 C49.65,7.53333333 50.672619,6.85714286 50.672619,6.85714286 C50.672619,6.85714286 51.4214286,7.80119048 52.2678571,7.72380952 C53.5880952,7.60833333 53.527381,6.56666667 53.4857143,6.32261905 C53.7142857,6.72142857 54.3178571,7.92142857 51.9928571,10.6 L53.8857143,12.127381 L53.8857143,16.0714286 C53.8857143,16.0714286 51.6880952,17.2130952 49.6095238,18.7309524 C49.6095238,18.7309524 48.45,17.2809524 47.4404762,17.9714286 C46.7619048,18.4380952 47.0738095,19.2333333 48.0285714,19.5869048 Z M46.3940476,16.547619 C46.3940476,16.547619 47.3916667,14.897619 49.1059524,15.252381 C50.7511905,15.5952381 51.3238095,17.3321429 51.3238095,17.3321429 L51.3238095,13.3297619 L50.175,12.3297619 C48.9142857,13.597619 46.6738095,15.4297619 46.3940476,16.547619 Z M48.9380952,8.18690476 L48.9380952,11.3392857 L49.9892857,12.2535714 C49.9892857,12.2535714 52.2702381,10.4285714 53.097619,8.73809524 C53.097619,8.73809524 52.072619,10.1285714 50.6952381,9.70238095 C49.5380952,9.34880952 48.9380952,8.18690476 48.9380952,8.18690476 Z" id="Fill-15" fill="#1A1919" mask="url(#mask-4)"></path>
            </g>
            <path d="M99.6369048,9.58214286 L100.489286,8.79642857 L100.609524,8.93333333 L99.7821429,9.70238095 L99.7821429,15.9714286 C99.7821429,15.9714286 98.2047619,16.8059524 97.1047619,17.427381 C96.0059524,18.0452381 94.8321429,18.777381 94.8321429,18.777381 L91.9392857,16.3416667 L91.1738095,17.0035714 L91.0511905,16.8690476 L91.8547619,16.1690476 L91.8547619,9.42619048 L91.8666667,9.42619048 C91.8666667,9.42619048 93.2285714,8.80952381 94.3809524,8.16071429 C95.4083333,7.57738095 96.5607143,6.91071429 96.5607143,6.91071429 L99.6369048,9.58214286 Z M94.5988095,15.1035714 L97.0416667,17.3154762 L97.0416667,10.5488095 L94.5988095,8.28690476 L94.5988095,15.1035714 Z" id="Fill-17" fill="#1A1919"></path>
            <path d="M105.32381,8.9452381 L107.159524,7.06785714 C107.159524,7.06785714 107.410714,7.29166667 107.647619,7.40595238 C107.783333,7.4702381 108.338095,7.75952381 108.847619,7.47738095 C109.125,7.32857143 109.164286,7.28690476 109.466667,6.99880952 C109.530952,8.45833333 108.828571,9.48690476 107.954762,9.91190476 C107.596429,10.0845238 106.552381,10.4166667 105.459524,9.08690476 L105.459524,15.8321429 L106.622619,16.8571429 L107.591667,16.0547619 L107.703571,16.1964286 L104.665476,18.7309524 L102.353571,16.6297619 L101.520238,17.4130952 L101.384524,17.2666667 L102.65,16.125 L102.661905,10.302381 L101.689286,9.01428571 L100.853571,9.75119048 L100.734524,9.61666667 L103.677381,6.9702381 L105.32381,8.9452381" id="Fill-18" fill="#1A1919"></path>
            <path d="M113.065476,11.7535714 L116.463095,6.81547619 C116.463095,6.81547619 116.911905,7.34285714 117.692857,7.55 C118.752381,7.82619048 119.678571,6.80357143 119.678571,6.80357143 C119.50119,8.12380952 118.832143,9.62619048 117.44881,9.85357143 C116.227381,10.0559524 115.095238,9.10952381 115.095238,9.10952381 L114.875,9.44761905 L119.590476,16.5714286 L120.534524,15.7440476 L120.654762,15.8809524 L117.420238,18.7107143 L113.065476,11.7535714" id="Fill-19" fill="#1A1919"></path>
            <path d="M110.261905,5.15714286 C110.261905,4.09166667 109.82381,3.43690476 109.252381,3.48333333 L112.958333,0.880952381 L112.958333,15.6083333 L113.935714,16.6392857 L114.677381,15.9988095 L114.792857,16.1345238 L111.808333,18.7428571 L109.786905,16.8404762 L108.977381,17.5547619 L108.847619,17.4154762 L110.261905,16.1880952 L110.261905,5.15714286" id="Fill-20" fill="#1A1919"></path>
            <path d="M79.2916667,4.91547619 C79.2916667,3.92261905 78.8880952,3.36904762 78.2345238,3.35 C77.2916667,3.33214286 77.0678571,4.65714286 77.0678571,4.65714286 C77.0678571,4.65714286 76.897619,3.63452381 77.7547619,2.70357143 C78.2369048,2.18809524 79.1345238,1.45833333 80.5404762,1.7952381 C81.9904762,2.14642857 82.4011905,3.27380952 82.4011905,4.26666667 L82.4011905,17.9690476 C82.4011905,17.9690476 82.95,18.0333333 83.327381,18.1178571 C83.7642857,18.2059524 84.177381,18.325 84.177381,18.325 L84.177381,1.80238095 L84.3571429,1.80238095 L84.3571429,4.03214286 L87.3321429,1.63452381 L89.5119048,3.57380952 L90.5285714,2.69285714 L90.6440476,2.83214286 L89.5809524,3.7452381 L89.5809524,16.4880952 C89.5297619,17.3202381 89.3940476,18.1642857 88.6095238,18.652381 C86.8595238,19.6869048 84.747619,18.4916667 82.8654762,18.2202381 C81.4690476,18.0107143 79.277381,17.747619 78.727381,19.0261905 C78.547619,19.45 78.5607143,20.0988095 79.1940476,20.5214286 C80.4642857,21.372619 86.125,19.0964286 88.0666667,19.9988095 C89.8357143,20.8238095 89.8285714,22.1285714 89.5571429,23.0214286 C89.0964286,24.7047619 86.975,25 86.975,25 C86.975,25 88.0119048,24.3952381 87.7166667,23.397619 C87.5666667,22.8940476 87.225,22.7511905 86.1130952,22.875 C83.6869048,23.1511905 80.7869048,24.3261905 78.8380952,23.5095238 C77.8333333,23.0904762 77.125,21.8357143 77.1916667,20.6035714 C77.2428571,18.8261905 79.2916667,18.1285714 79.2916667,18.1285714 L79.2916667,11.5630952 C79.2321429,11.302381 78.1380952,11.3678571 77.9,11.8511905 C77.5369048,12.5809524 78.352381,12.9142857 78.352381,12.9142857 C78.352381,12.9142857 77.6761905,13.0178571 77.1095238,12.3654762 C76.8333333,12.0440476 76.2571429,10.9285714 77.0071429,9.89166667 C77.622619,9.03809524 78.3607143,8.88928571 79.2916667,8.78928571 L79.2916667,4.91547619 Z M84.3571429,18.375 C84.3571429,18.375 85.2202381,18.6011905 85.85,18.0869048 C86.55,17.5107143 86.4738095,16.7011905 86.4738095,16.7011905 L86.4738095,11.597619 C86.4738095,11.597619 86.0702381,11.075 85.425,11.075 C84.7809524,11.075 84.3571429,11.6166667 84.3571429,11.6166667 L84.3571429,18.375 Z M86.4738095,4.97857143 L85.0464286,3.725 L84.3571429,4.26666667 L84.3571429,8.99642857 C84.3571429,8.99642857 84.7809524,9.53333333 85.425,9.53333333 C86.0702381,9.53333333 86.4738095,9.01666667 86.4738095,9.01666667 L86.4738095,4.97857143 Z M86.4738095,9.3 C86.4738095,9.3 86.0654762,9.76547619 85.422619,9.76547619 C84.7785714,9.76547619 84.3571429,9.29880952 84.3571429,9.29880952 L84.3571429,11.3119048 C84.3571429,11.3119048 84.7785714,10.8464286 85.422619,10.8464286 C86.0654762,10.8464286 86.4738095,11.2880952 86.4738095,11.2880952 L86.4738095,9.3 Z" id="Fill-21" fill="#1A1919"></path>
        </g>
        <g id="cloud_lockup_horiz" transform="translate(0.000000, 2.000000)">
            <path d="M20.4901669,7.14653228 L21.516485,7.16580787 L24.3052346,4.37705827 L24.440378,3.19610709 C22.2245417,1.22507087 19.3092157,0.024415748 16.1173921,0.024415748 C10.3379276,0.024415748 5.46184567,3.95577953 4.01617638,9.28376693 C4.32137323,9.0728063 4.97074646,9.23000945 4.97074646,9.23000945 L10.5441764,8.31420472 C10.5441764,8.31420472 10.8324535,7.84045354 10.9748787,7.8695811 C12.2496378,6.47424252 14.0829606,5.59741732 16.1173921,5.59741732 C17.7723087,5.59741732 19.2935811,6.17868346 20.4901669,7.14653228" id="Fill-1" fill="#E94335"></path>
            <path d="M28.2203213,9.29083465 C27.5735181,6.90130394 26.2372913,4.7936252 24.4378079,3.19396535 L20.4873827,7.14417638 C22.0692661,8.4223622 23.0833764,10.3764787 23.0833764,12.5636157 L23.0833764,13.2603213 C25.0040819,13.2603213 26.5666898,14.822715 26.5666898,16.7434205 C26.5666898,18.664126 25.0040819,20.2265197 23.0827339,20.2265197 L16.117178,20.2265197 L15.4200441,20.9268661 L15.4200441,25.1066709 L16.117178,25.7995213 L23.0833764,25.7995213 C28.0770394,25.7995213 32.1396913,21.7370835 32.1396913,16.7434205 C32.1396913,13.6563276 30.5858646,10.9264756 28.2203213,9.29083465" id="Fill-2" fill="#4285F4"></path>
            <path d="M9.15076535,25.7995213 L16.1113953,25.7995213 L16.1113953,20.2265197 L9.15162205,20.2265197 C8.63974803,20.2265197 8.15485984,20.1127937 7.71666142,19.9136126 L6.71261732,20.2205228 L3.92258268,23.0105575 L3.67799685,23.952063 C5.19948346,25.1100976 7.09577323,25.7993071 9.15076535,25.7995213" id="Fill-3" fill="#1FA853"></path>
            <path d="M9.15097953,7.68731969 C4.15753071,7.68731969 0.0948787402,11.7499717 0.0948787402,16.7434205 C0.0948787402,19.6838047 1.50413858,22.2999307 3.68185197,23.9554898 L7.72115906,19.9161827 C6.51236535,19.3691843 5.66788031,18.1543937 5.66788031,16.7434205 C5.66788031,14.822715 7.23027402,13.2603213 9.15097953,13.2603213 C10.5617386,13.2603213 11.7767433,14.1048063 12.3237417,15.3136 L16.3630488,11.2742929 C14.7077039,9.09657953 12.0911496,7.68731969 9.15097953,7.68731969" id="Fill-4" fill="#FBBC05"></path>
            <path d="M104.754054,15.9188535 L109.953109,13.7602016 C109.8064,13.3931087 109.534614,13.0960504 109.137965,12.8677417 C108.741531,12.6405039 108.29348,12.5263496 107.794243,12.5263496 C107.045279,12.5263496 106.343861,12.8347591 105.690419,13.451578 C105.036762,14.0683969 104.724498,14.8910362 104.754054,15.9188535 Z M107.992567,21.9112063 C106.347502,21.9112063 104.974438,21.3528567 103.873159,20.2365858 C102.771452,19.1211717 102.220813,17.7399685 102.220813,16.0951181 C102.220813,14.3920126 102.753033,12.9964598 103.817902,11.9095307 C104.882557,10.8230299 106.17852,10.2792441 107.706003,10.2792441 C108.411061,10.2792441 109.064504,10.4079622 109.666759,10.6649701 C110.2688,10.9221921 110.768252,11.2524472 111.164901,11.6561638 C111.561335,12.0605228 111.877027,12.4531024 112.112189,12.8347591 C112.346923,13.2168441 112.537751,13.5985008 112.684888,13.9803717 L112.949392,14.6415244 L105.172762,17.8575496 C105.774803,19.0327181 106.714809,19.6201953 107.992567,19.6201953 C109.167307,19.6201953 110.121877,19.0841197 110.856277,18.0117543 L112.839093,19.3336315 C112.398539,19.9943559 111.774224,20.589115 110.966576,21.1179087 C110.158715,21.6467024 109.167307,21.9112063 107.992567,21.9112063 Z M98.4316598,21.5586772 L100.987175,21.5586772 L100.987175,4.46358425 L98.4316598,4.46358425 L98.4316598,21.5586772 Z M91.3159685,19.6201953 C92.1972913,19.6201953 92.9353323,19.2862992 93.5300913,18.6176504 C94.1248504,17.9494299 94.4221228,17.1158677 94.4221228,16.117178 C94.4221228,15.1039244 94.1248504,14.2596535 93.5300913,13.583937 C92.9353323,12.9086488 92.1972913,12.5706835 91.3159685,12.5706835 C90.4200819,12.5706835 89.6563402,12.9086488 89.0249575,13.583937 C88.3933606,14.2596535 88.0776693,15.1039244 88.0776693,16.117178 C88.0776693,17.1158677 88.3933606,17.9494299 89.0249575,18.6176504 C89.6563402,19.2862992 90.4200819,19.6201953 91.3159685,19.6201953 Z M91.1397039,27.1318929 C89.8473827,27.1318929 88.7606677,26.7866457 87.8793449,26.0965795 C86.9982362,25.406085 86.3664252,24.6057197 85.9847685,23.6954835 L88.2100283,22.7702551 C88.444548,23.3283906 88.8118551,23.8128504 89.3113071,24.224063 C89.8103307,24.6350614 90.4200819,24.8410961 91.1397039,24.8410961 C92.109052,24.8410961 92.8691528,24.5470362 93.4197921,23.9597732 C93.9706457,23.3722961 94.2458583,22.5280252 94.2458583,21.4261039 L94.2458583,20.589115 L94.1578331,20.589115 C93.4379969,21.4704378 92.4176756,21.9112063 91.0957984,21.9112063 C89.6122205,21.9112063 88.3124031,21.3460031 87.1965606,20.214526 C86.0802898,19.0841197 85.5221543,17.7179087 85.5221543,16.117178 C85.5221543,14.5018835 86.0802898,13.1249638 87.1965606,11.9866331 C88.3124031,10.8489449 89.6122205,10.2792441 91.0957984,10.2792441 C91.7565228,10.2792441 92.3549228,10.4043213 92.8912126,10.6540472 C93.427074,10.9037732 93.8494236,11.2121827 94.1578331,11.5790614 L94.2458583,11.5790614 L94.2458583,10.6317732 L96.6692283,10.6317732 L96.6692283,21.073789 C96.6692283,23.1005102 96.1515717,24.6168567 95.1160441,25.6230425 C94.0807307,26.6288 92.7552126,27.1318929 91.1397039,27.1318929 Z M76.3137764,18.6176504 C76.959937,19.2862992 77.7309606,19.6201953 78.6268472,19.6201953 C79.5225197,19.6201953 80.2937575,19.2862992 80.9401323,18.6176504 C81.5862929,17.9494299 81.9092661,17.1083717 81.9092661,16.0951181 C81.9092661,15.0673008 81.5899339,14.2226016 80.9510551,13.5618772 C80.3121764,12.9009386 79.5372976,12.5706835 78.6268472,12.5706835 C77.7161827,12.5706835 76.9415181,12.9009386 76.3026394,13.5618772 C75.6639748,14.2226016 75.3446425,15.0673008 75.3446425,16.0951181 C75.3446425,17.1083717 75.6674016,17.9494299 76.3137764,18.6176504 Z M82.7685291,20.2477228 C81.6374803,21.3571402 80.2571339,21.9112063 78.6268472,21.9112063 C76.9967748,21.9112063 75.616,21.3571402 74.4853795,20.2477228 C73.3543307,19.138948 72.7891276,17.7549606 72.7891276,16.0951181 C72.7891276,14.4357039 73.3543307,13.0517165 74.4853795,11.9422992 C75.616,10.8337386 76.9967748,10.2792441 78.6268472,10.2792441 C80.2571339,10.2792441 81.6374803,10.8337386 82.7685291,11.9422992 C83.8993638,13.0517165 84.4649953,14.4357039 84.4649953,16.0951181 C84.4649953,17.7549606 83.8993638,19.138948 82.7685291,20.2477228 Z M63.5807496,18.6176504 C64.2266961,19.2862992 64.9977197,19.6201953 65.8938205,19.6201953 C66.7892787,19.6201953 67.5603024,19.2862992 68.2068913,18.6176504 C68.8528378,17.9494299 69.1762394,17.1083717 69.1762394,16.0951181 C69.1762394,15.0673008 68.8566929,14.2226016 68.2178142,13.5618772 C67.5791496,12.9009386 66.8042709,12.5706835 65.8938205,12.5706835 C64.9829417,12.5706835 64.2084913,12.9009386 63.5696126,13.5618772 C62.9307339,14.2226016 62.6114016,15.0673008 62.6114016,16.0951181 C62.6114016,17.1083717 62.9341606,17.9494299 63.5807496,18.6176504 Z M70.0352882,20.2477228 C68.9042394,21.3571402 67.5238929,21.9112063 65.8938205,21.9112063 C64.2635339,21.9112063 62.8829732,21.3571402 61.7521386,20.2477228 C60.6210898,19.138948 60.0558866,17.7549606 60.0558866,16.0951181 C60.0558866,14.4357039 60.6210898,13.0517165 61.7521386,11.9422992 C62.8829732,10.8337386 64.2635339,10.2792441 65.8938205,10.2792441 C67.5238929,10.2792441 68.9042394,10.8337386 70.0352882,11.9422992 C71.1661228,13.0517165 71.7317543,14.4357039 71.7317543,16.0951181 C71.7317543,17.7549606 71.1661228,19.138948 70.0352882,20.2477228 Z M50.7372094,21.9112063 C48.240378,21.9112063 46.089222,21.0262425 44.2824567,19.2565291 C42.4761197,17.4870299 41.572737,15.3609323 41.572737,12.8788787 C41.572737,10.3968252 42.4761197,8.27137008 44.2824567,6.50122835 C46.089222,4.73172913 48.240378,3.84676535 50.7372094,3.84676535 C53.1310236,3.84676535 55.1945827,4.67647244 56.9276724,6.33610079 L55.1873008,8.07647244 C53.938885,6.90151811 52.4557354,6.31404094 50.7372094,6.31404094 C48.9308724,6.31404094 47.399748,6.95249134 46.1440504,8.23067717 C44.8883528,9.50822047 44.260611,11.057978 44.260611,12.8788787 C44.260611,14.7002079 44.8883528,16.2491087 46.1440504,17.5272945 C47.399748,18.8048378 48.9308724,19.4439307 50.7372094,19.4439307 C52.5731024,19.4439307 54.0928756,18.8418898 55.2973858,17.6371654 C56.0170079,16.9179717 56.4650583,15.8824441 56.6413228,14.5307969 L50.7372094,14.5307969 L50.7372094,12.0639496 L59.0424189,12.0639496 C59.1304441,12.5042898 59.1745638,13.0185197 59.1745638,13.6059969 C59.1745638,16.0293669 58.4622236,17.953285 57.0377575,19.377537 C55.4222488,21.0667213 53.321852,21.9112063 50.7372094,21.9112063 Z" id="Fill-5" fill="#5F6368"></path>
            <path d="M126.365417,21.9112063 C124.044636,21.9112063 122.098872,21.1256189 120.527269,19.5538016 C118.95588,17.9826268 118.170293,16.0216567 118.170293,13.671748 C118.170293,11.3222677 118.95588,9.36151181 120.527269,7.78990866 C122.098872,6.21851969 124.044636,5.43271811 126.365417,5.43271811 C128.744454,5.43271811 130.675439,6.29176693 132.159017,8.01007874 L130.749329,9.37586142 C129.676964,8.03984882 128.215874,7.37141417 126.365417,7.37141417 C124.647106,7.37141417 123.19651,7.95182362 122.014488,9.112 C120.832038,10.2721764 120.241134,11.792378 120.241134,13.671748 C120.241134,15.552189 120.832038,17.0719622 122.014488,18.2321386 C123.19651,19.392315 124.647106,19.9727244 126.365417,19.9727244 C128.259994,19.9727244 129.875288,19.2087685 131.211943,17.681285 L132.621631,19.0914016 C131.902009,19.9581606 130.998841,20.6443717 129.912126,21.1511055 C128.824983,21.6578394 127.642961,21.9112063 126.365417,21.9112063" id="Fill-6" fill="#5F6368"></path>
            <polygon id="Fill-7" fill="#5F6368" points="134.427754 21.5586772 136.454476 21.5586772 136.454476 5.78524724 134.427754 5.78524724"></polygon>
            <path d="M141.268233,18.9922394 C141.965581,19.7043654 142.791647,20.0603213 143.746646,20.0603213 C144.701002,20.0603213 145.527068,19.7043654 146.224844,18.9922394 C146.922406,18.2798992 147.271509,17.3364661 147.271509,16.1612976 C147.271509,14.9863433 146.922406,14.0429102 146.224844,13.3303559 C145.527068,12.6182299 144.701002,12.2620598 143.746646,12.2620598 C142.791647,12.2620598 141.965581,12.6182299 141.268233,13.3303559 C140.570457,14.0429102 140.221783,14.9863433 140.221783,16.1612976 C140.221783,17.3364661 140.570457,18.2798992 141.268233,18.9922394 Z M139.759169,12.0528126 C140.801764,10.9588157 142.130923,10.411389 143.746646,10.411389 C145.36194,10.411389 146.690885,10.9588157 147.733909,12.0528126 C148.776718,13.1470236 149.29823,14.5166614 149.29823,16.1612976 C149.29823,17.8063622 148.776718,19.1757858 147.733909,20.2697827 C146.690885,21.3639937 145.36194,21.9112063 143.746646,21.9112063 C142.130923,21.9112063 140.801764,21.3639937 139.759169,20.2697827 C138.716359,19.1757858 138.195061,17.8063622 138.195061,16.1612976 C138.195061,14.5166614 138.716359,13.1470236 139.759169,12.0528126 Z" id="Fill-8" fill="#5F6368"></path>
            <path d="M160.511483,21.5586772 L158.572787,21.5586772 L158.572787,20.0603213 L158.484548,20.0603213 C158.176139,20.5747654 157.706028,21.0114646 157.074646,21.3712756 C156.443263,21.7310866 155.775043,21.9112063 155.070198,21.9112063 C153.718765,21.9112063 152.694375,21.5002079 151.996813,20.6773543 C151.299036,19.8551433 150.950362,18.7534362 150.950362,17.3730898 L150.950362,10.7639181 L152.977083,10.7639181 L152.977083,17.0426205 C152.977083,19.054778 153.865688,20.0603213 155.642683,20.0603213 C156.479887,20.0603213 157.162885,19.7229984 157.691679,19.0470677 C158.220258,18.3717795 158.484548,17.5932598 158.484548,16.7123654 L158.484548,10.7639181 L160.511483,10.7639181 L160.511483,21.5586772" id="Fill-9" fill="#5F6368"></path>
            <path d="M167.7152,20.0603213 C168.66977,20.0603213 169.481058,19.7077921 170.149279,19.002948 C170.817499,18.2981039 171.151824,17.3510299 171.151824,16.1612976 C171.151824,14.9717795 170.817499,14.0242772 170.149279,13.3192189 C169.481058,12.614589 168.66977,12.2620598 167.7152,12.2620598 C166.775194,12.2620598 165.967118,12.6182299 165.29183,13.3303559 C164.616113,14.0429102 164.278576,14.9863433 164.278576,16.1612976 C164.278576,17.3364661 164.616113,18.2798992 165.29183,18.9922394 C165.967118,19.7043654 166.775194,20.0603213 167.7152,20.0603213 Z M167.384517,21.9112063 C165.989178,21.9112063 164.785096,21.3605669 163.771628,20.2588598 C162.758375,19.1573669 162.251855,17.7915843 162.251855,16.1612976 C162.251855,14.5307969 162.758375,13.1650142 163.771628,12.0639496 C164.785096,10.9622425 165.989178,10.411389 167.384517,10.411389 C168.206942,10.411389 168.944983,10.5876535 169.598639,10.9401827 C170.252082,11.2927118 170.740397,11.7332661 171.063584,12.2620598 L171.151824,12.2620598 L171.063584,10.7639181 L171.063584,5.78524724 L173.09052,5.78524724 L173.09052,21.5586772 L171.151824,21.5586772 L171.151824,20.0603213 L171.063584,20.0603213 C170.740397,20.589115 170.252082,21.0298835 169.598639,21.3824126 C168.944983,21.7349417 168.206942,21.9112063 167.384517,21.9112063 Z" id="Fill-10" fill="#5F6368"></path>
        </g>
    </g>
</svg>