<?xml version="1.0" encoding="UTF-8"?>
<svg width="78px" height="30px" viewBox="0 0 78 30" version="1.1" xmlns="http://www.w3.org/2000/svg" xmlns:xlink="http://www.w3.org/1999/xlink">
    <!-- Generator: Sketch 52.2 (67145) - http://www.bohemiancoding.com/sketch -->
    <title>Artboard</title>
    <desc>Created with Sketch.</desc>
    <defs>
        <polygon id="path-1" points="0 0.125151515 21.9633333 0.125151515 21.9633333 27.9872727 0 27.9872727"></polygon>
    </defs>
    <g id="Artboard" stroke="none" stroke-width="1" fill="none" fill-rule="evenodd">
        <path d="M44.5,4 L44.5,26" id="Line-4" stroke="#DADCE0" stroke-width="0.9" fill-rule="nonzero"></path>
        <g id="NYT-TMARK-K-RGB" transform="translate(55.000000, 1.000000)">
            <mask id="mask-2" fill="white">
                <use xlink:href="#path-1"></use>
            </mask>
            <g id="Clip-2"></g>
            <path d="M21.8533333,17.3621212 C20.9366667,19.7421212 19.25,21.5812121 16.8297843,22.5548485 L16.8297843,17.3621212 L19.7266667,14.8016061 L16.8297843,12.2775758 L16.8297843,8.70757576 C19.47,8.52727273 21.3033333,6.61606061 21.3033333,4.27212121 C21.3033333,1.2069697 18.3333333,0.125151515 16.6466667,0.125151515 C16.28,0.125151515 15.876451,0.125151515 15.2902157,0.269393939 L15.2902157,0.413636364 C15.51,0.413636364 15.8397843,0.377575758 15.95,0.377575758 C17.123549,0.377575758 18.003549,0.918484848 18.003549,1.96424242 C18.003549,2.75757576 17.3433333,3.55090909 16.1702157,3.55090909 C13.2733333,3.55090909 9.86333333,1.2430303 6.16,1.2430303 C2.86,1.2430303 0.586666667,3.65909091 0.586666667,6.11121212 C0.586666667,8.52727273 2.01666667,9.32060606 3.52,9.86151515 L3.55666667,9.71727273 C3.08,9.42878788 2.75,8.92393939 2.75,8.13060606 C2.75,7.04878788 3.77666667,6.14727273 5.06,6.14727273 C8.17666667,6.14727273 13.2,8.70757576 16.3166667,8.70757576 L16.61,8.70757576 L16.61,12.3136364 L13.7133333,14.8016061 L16.61,17.3621212 L16.61,22.6269697 C15.4,23.0594848 14.1533333,23.2402121 12.87,23.2402121 C8.03,23.2402121 4.95,20.3549394 4.95,15.5590909 C4.95,14.4051515 5.09666667,13.2872727 5.42666667,12.2054545 L7.84666667,11.159697 L7.84666667,21.7615152 L12.76,19.6341515 L12.76,8.77969697 L5.53666667,11.9530303 C6.27,9.86151515 7.77333333,8.3469697 9.57,7.48151515 L9.53333333,7.37333333 C4.69333333,8.41909091 0,12.0251515 0,17.4342424 C0,23.6727273 5.35333333,28 11.5868824,28 C18.1866667,28 21.9266667,23.6727273 21.9633333,17.3621212 L21.8533333,17.3621212" id="Fill-1" fill="#0A0B09" mask="url(#mask-2)"></path>
        </g>
        <g id="Cloud" transform="translate(1.000000, 2.000000)">
            <path d="M21.4150526,7.47822236 L22.4926866,7.49846173 L25.4208737,4.57027465 L25.5627742,3.33027591 C23.2361461,1.26068787 20.1750539,6.21724894e-15 16.8236391,6.21724894e-15 C10.7552013,6.21724894e-15 5.63531528,4.12793197 4.11736252,9.72231874 C4.43781921,9.50081008 5.1196611,9.66587339 5.1196611,9.66587339 L10.9717625,8.70427843 C10.9717625,8.70427843 11.2744535,8.20683969 11.424,8.23742362 C12.762497,6.77231811 14.687486,5.85165165 16.8236391,5.85165165 C18.5613014,5.85165165 20.1586375,6.4619811 21.4150526,7.47822236" id="Fill-1" fill="#E94335"></path>
            <path d="M29.5317146,9.72973984 C28.8525713,7.2207326 27.4495332,5.00766992 25.5600756,3.32802709 L21.4121291,7.47574866 C23.0731068,8.81784378 24.1379225,10.8696661 24.1379225,13.16616 L24.1379225,13.8977008 C26.1546633,13.8977008 27.7954016,15.5382142 27.7954016,17.554955 C27.7954016,19.5716957 26.1546633,21.2122091 24.1372479,21.2122091 L16.8234142,21.2122091 L16.0914236,21.9475729 L16.0914236,26.3363679 L16.8234142,27.0638608 L24.1379225,27.0638608 C29.3812687,27.0638608 33.6470532,22.7983011 33.6470532,17.554955 C33.6470532,14.3135074 32.0155351,11.4471628 29.5317146,9.72973984" id="Fill-2" fill="#4285F4"></path>
            <path d="M9.50868094,27.0638608 L16.8173424,27.0638608 L16.8173424,21.2122091 L9.50958047,21.2122091 C8.97211276,21.2122091 8.46298016,21.0927969 8.00287181,20.8836567 L6.94862551,21.2059124 L4.01908913,24.1354488 L3.76227402,25.1240296 C5.35983496,26.339966 7.35093921,27.0636359 9.50868094,27.0638608" id="Fill-3" fill="#1FA853"></path>
            <path d="M9.50890583,8.04604913 C4.26578457,8.04604913 4.08562073e-14,12.3118337 4.08562073e-14,17.554955 C4.08562073e-14,20.6423584 1.47972283,23.3892907 3.76632189,25.1276277 L8.00759433,20.8863553 C6.73836094,20.3120069 5.85165165,19.0364769 5.85165165,17.554955 C5.85165165,15.5382142 7.49216504,13.8977008 9.50890583,13.8977008 C10.9902028,13.8977008 12.2659578,14.7844101 12.8403061,16.0536435 L17.0815786,11.812371 C15.3434665,9.52577197 12.5960844,8.04604913 9.50890583,8.04604913" id="Fill-4" fill="#FBBC05"></path>
        </g>
    </g>
</svg>