<svg width="214" height="35" xmlns="http://www.w3.org/2000/svg" xmlns:xlink="http://www.w3.org/1999/xlink"><defs><path id="path-1" d="M0 .307h20.014v22.287H0z"/></defs><g id="Page-1" fill="none" fill-rule="evenodd"><g id="NYT-GC_LogoLockup-FLIP"><g id="Group"><path d="M62.723 18.925l.011-3.043 10.191.038c.102.537.161 1.175.158 1.867-.008 2.282-.644 5.106-2.663 7.11-1.964 2.03-4.469 3.109-7.784 3.096-6.142-.024-11.287-5.043-11.263-11.185.023-6.142 5.205-11.123 11.347-11.1 3.397.013 5.811 1.354 7.625 3.1l-2.155 2.138c-1.3-1.227-3.063-2.185-5.482-2.194-4.484-.017-8.003 3.584-8.02 8.068-.017 4.484 3.475 8.112 7.96 8.129 2.907.012 4.569-1.151 5.633-2.207.867-.86 1.441-2.097 1.668-3.789l-7.226-.028" id="Fill-1" fill="#595D5E"/><path d="M85.448 20.904c.01-2.581-1.858-4.355-4.033-4.364-2.174-.007-4.056 1.752-4.065 4.334-.01 2.554 1.858 4.355 4.033 4.363 2.174.009 4.056-1.778 4.065-4.333m3.153.012c-.016 4.132-3.261 7.163-7.229 7.148-3.968-.015-7.19-3.071-7.175-7.202.016-4.158 3.262-7.162 7.229-7.148 3.968.015 7.19 3.044 7.175 7.202" id="Fill-2" fill="#595D5E"/><path d="M101.159 20.964c.01-2.582-1.858-4.356-4.033-4.364-2.174-.009-4.056 1.751-4.065 4.333-.01 2.555 1.858 4.356 4.032 4.364 2.175.008 4.056-1.779 4.066-4.333m3.153.011c-.016 4.132-3.262 7.163-7.229 7.148-3.968-.015-7.19-3.071-7.175-7.201.016-4.159 3.261-7.163 7.229-7.148 3.967.015 7.19 3.044 7.175 7.201" id="Fill-3" fill="#595D5E"/><path d="M116.598 21.05c.01-2.529-1.668-4.383-3.815-4.391-2.175-.008-4.002 1.833-4.012 4.36-.009 2.501 1.805 4.328 3.979 4.337 2.147.008 3.839-1.806 3.848-4.306m2.798-6.758l-.049 12.883c-.02 5.299-3.154 7.461-6.849 7.447-3.479-.013-5.563-2.358-6.344-4.263l2.749-1.132c.485 1.171 1.676 2.562 3.605 2.569 2.365.009 3.838-1.453 3.848-4.198l.004-1.033h-.109c-.709.866-2.071 1.622-3.783 1.616-3.588-.013-6.864-3.151-6.849-7.173.015-4.05 3.316-7.19 6.903-7.176 1.712.006 3.068.773 3.771 1.617l.109.001.004-1.169 2.99.011" id="Fill-4" fill="#595D5E"/><path id="Fill-5" fill="#595D5E" d="M124.685 27.793l-3.153-.012.079-21.019 3.153.012-.079 21.019"/><path d="M129.356 20.853l6.424-2.639c-.35-.898-1.407-1.528-2.657-1.532-1.603-.006-3.838 1.398-3.767 4.171m7.519 2.61l2.439 1.64c-.792 1.165-2.702 3.169-5.991 3.157-4.076-.015-7.108-3.179-7.093-7.202.017-4.267 3.098-7.163 6.794-7.149 3.724.014 5.533 2.983 6.125 4.589l.323.816-9.608 3.933c.728 1.442 1.867 2.18 3.47 2.186 1.604.007 2.721-.777 3.541-1.97" id="Fill-6" fill="#595D5E"/><path d="M155.961 28.345c-2.862-.01-5.259-.989-7.19-2.934-1.932-1.946-2.892-4.369-2.881-7.268.011-2.898.989-5.313 2.936-7.245 1.945-1.931 4.349-2.892 7.213-2.881 2.935.011 5.313 1.08 7.135 3.207l-1.746 1.678c-1.316-1.653-3.116-2.484-5.399-2.493-2.119-.008-3.912.701-5.375 2.127-1.465 1.425-2.2 3.298-2.209 5.617-.009 2.319.713 4.197 2.166 5.634 1.453 1.437 3.24 2.159 5.36 2.167 2.337.009 4.333-.926 5.989-2.804l1.733 1.746c-.892 1.066-2.009 1.908-3.353 2.529-1.343.62-2.802.926-4.379.92" id="Fill-7" fill="#595D5E"/><path id="Fill-8" fill="#595D5E" d="M168.41 27.958l-2.501-.01.074-19.459 2.5.01-.073 19.459"/><path d="M174.36 24.814c.857.882 1.875 1.325 3.053 1.329 1.177.005 2.198-.43 3.062-1.305.863-.876 1.298-2.038 1.304-3.488.006-1.45-.421-2.615-1.278-3.498-.857-.881-1.875-1.324-3.052-1.329-1.178-.004-2.199.431-3.062 1.306-.865.876-1.299 2.039-1.304 3.488-.006 1.45.419 2.615 1.277 3.497m-1.829-8.567c1.291-1.345 2.933-2.014 4.927-2.007 1.992.008 3.629.689 4.911 2.044 1.281 1.354 1.918 3.047 1.91 5.075-.007 2.029-.657 3.717-1.948 5.062-1.292 1.344-2.934 2.013-4.927 2.005-1.993-.007-3.63-.688-4.911-2.043-1.282-1.354-1.918-3.046-1.91-5.076.007-2.028.656-3.716 1.948-5.06" id="Fill-9" fill="#595D5E"/><path d="M198.087 28.07l-2.391-.009.007-1.848-.109-.001c-.383.633-.965 1.17-1.745 1.611-.781.44-1.606.66-2.476.656-1.667-.006-2.929-.517-3.786-1.536-.857-1.018-1.281-2.379-1.275-4.081l.031-8.154 2.5.01-.029 7.746c-.01 2.482 1.082 3.726 3.274 3.735 1.033.004 1.877-.409 2.533-1.24.654-.831.984-1.79.988-2.877l.028-7.339 2.501.01-.051 13.317" id="Fill-10" fill="#595D5E"/><g id="Group-14" transform="translate(4)"><path d="M202.981 26.256c1.178.004 2.181-.427 3.008-1.293.828-.868 1.244-2.034 1.25-3.502.006-1.467-.402-2.638-1.223-3.511-.822-.872-1.821-1.311-2.998-1.315-1.16-.004-2.159.431-2.995 1.307-.836.875-1.258 2.037-1.263 3.487-.006 1.45.407 2.616 1.237 3.498.83.881 1.825 1.324 2.984 1.329m-.416 2.281c-1.722-.006-3.204-.692-4.449-2.056-1.245-1.363-1.864-3.05-1.857-5.061.008-2.012.639-3.694 1.895-5.048 1.255-1.354 2.743-2.028 4.465-2.022 1.014.004 1.923.225 2.728.663.805.438 1.405.983 1.801 1.637l.109.001-.102-1.849.024-6.142 2.5.01-.074 19.459-2.391-.009.007-1.849h-.109c-.401.651-1.006 1.192-1.814 1.624-.807.432-1.718.646-2.733.642" id="Fill-11" fill="#595D5E"/><path d="M21.104 9.695l1.261.028 3.44-3.414.172-1.45A15.345 15.345 0 0 0 15.765.924C8.664.897 2.654 5.704.853 12.244c.376-.257 1.173-.061 1.173-.061l6.852-1.1s.357-.58.532-.544a8.533 8.533 0 0 1 6.329-2.768c2.033.008 3.9.729 5.365 1.924" id="Fill-13" fill="#EA4335"/></g><path d="M34.593 12.365a15.43 15.43 0 0 0-4.619-7.508l-4.873 4.835a8.545 8.545 0 0 1 3.165 6.671l-.003.856a4.284 4.284 0 0 1 4.263 4.296 4.283 4.283 0 0 1-4.296 4.263l-8.559-.032-.86.857-.019 5.136.853.855 8.559.032c6.136.023 11.147-4.95 11.17-11.085.014-3.794-1.882-7.155-4.781-9.176" id="Fill-15" fill="#4285F4"/><g id="Group-19" transform="translate(0 10)"><mask id="mask-2" fill="#fff"><use xlink:href="#path-1"/></mask><path d="M11.085 22.561l8.553.033.026-6.848-8.552-.032a4.25 4.25 0 0 1-1.761-.391l-1.236.372-3.441 3.415-.304 1.156a11.058 11.058 0 0 0 6.715 2.295" id="Fill-16" fill="#34A853" mask="url(#mask-2)"/><path d="M11.169.307C5.034.283.023 5.257 0 11.392c-.014 3.613 1.706 6.834 4.374 8.878l4.982-4.944a4.282 4.282 0 0 1-2.508-3.908 4.284 4.284 0 0 1 4.296-4.264 4.282 4.282 0 0 1 3.888 2.538l4.982-4.945C17.99 2.064 14.782.32 11.169.307" id="Fill-18" fill="#FBBC04" mask="url(#mask-2)"/></g></g></g></g></svg>