<svg width="34" height="34" xmlns="http://www.w3.org/2000/svg" xmlns:xlink="http://www.w3.org/1999/xlink"><defs><path id="path-1" d="M0 0h34v34H0z"/></defs><g id="Experience" fill="none" fill-rule="evenodd"><g id="social-mobile" transform="translate(-119 -227)"><g id="Group-2" transform="translate(35 110)"><g id="Group-3" transform="translate(84 117)"><mask id="mask-2" fill="#fff"><use xlink:href="#path-1"/></mask><path d="M25.55 14.07c.249 5.547-3.887 11.73-11.207 11.73-2.227 0-4.3-.653-6.044-1.772a7.927 7.927 0 0 0 5.837-1.633 3.946 3.946 0 0 1-3.683-2.738 3.955 3.955 0 0 0 1.78-.067c-1.896-.381-3.205-2.09-3.162-3.916.531.295 1.14.473 1.786.492a3.946 3.946 0 0 1-1.22-5.263 11.193 11.193 0 0 0 8.126 4.12c-.574-2.467 1.297-4.842 3.841-4.842 1.135 0 2.16.478 2.878 1.245a7.885 7.885 0 0 0 2.504-.957 3.95 3.95 0 0 1-1.734 2.181 7.875 7.875 0 0 0 2.265-.62 8.005 8.005 0 0 1-1.967 2.04M17 0C7.612 0 0 7.61 0 17s7.612 17 17 17c9.389 0 17-7.61 17-17S26.39 0 17 0" id="Fill-1" fill="#4DC8F1" mask="url(#mask-2)"/></g></g></g></g></svg>