<svg width="34" height="34" xmlns="http://www.w3.org/2000/svg" xmlns:xlink="http://www.w3.org/1999/xlink"><defs><path id="path-1" d="M0 0h34v34H0z"/></defs><g id="Experience" fill="none" fill-rule="evenodd"><g id="social-mobile" transform="translate(-168 -227)"><g id="Group-2" transform="translate(35 110)"><g id="Group-3" transform="translate(133 117)"><mask id="mask-2" fill="#fff"><use xlink:href="#path-1"/></mask><path d="M26.452 25.219h-3.714v-6.33c0-1.736-.66-2.705-2.033-2.705-1.493 0-2.274 1.01-2.274 2.705v6.33h-3.58v-12.06h3.58v1.625s1.077-1.992 3.634-1.992 4.387 1.561 4.387 4.791v7.636zM10.58 11.58a2.216 2.216 0 0 1-2.207-2.225c0-1.23.988-2.225 2.207-2.225 1.22 0 2.207.996 2.207 2.225a2.216 2.216 0 0 1-2.207 2.225zM8.732 25.219h3.732v-12.06H8.732v12.06zM17 0C7.61 0 0 7.61 0 17s7.611 17 17 17c9.39 0 17-7.61 17-17S26.39 0 17 0z" id="Fill-1" fill="#0175B6" mask="url(#mask-2)"/></g></g></g></g></svg>