<svg width="34" height="34" xmlns="http://www.w3.org/2000/svg" xmlns:xlink="http://www.w3.org/1999/xlink"><defs><path id="path-1" d="M0 0h34v34H0z"/></defs><g id="Experience" fill="none" fill-rule="evenodd"><g id="social-mobile" transform="translate(-70 -227)"><g id="Group-2" transform="translate(35 110)"><g id="Group-3" transform="translate(35 117)"><mask id="mask-2" fill="#fff"><use xlink:href="#path-1"/></mask><path d="M22.032 10.001h-2.376c-.84 0-1.014.344-1.014 1.211v2.097h3.39l-.327 3.68h-3.063v10.995h-4.39V17.036h-2.283v-3.727h2.283v-2.935c0-2.754 1.473-4.193 4.74-4.193h3.04v3.82zM17 0C7.61 0 0 7.61 0 17s7.61 17 17 17c9.389 0 17-7.61 17-17S26.39 0 17 0z" id="Fill-1" fill="#3B5998" mask="url(#mask-2)"/></g></g></g></g></svg>